<svg width="23.000000" height="22.000000" viewBox="0 0 23 22" fill="none" xmlns="http://www.w3.org/2000/svg" xmlns:xlink="http://www.w3.org/1999/xlink">
	<desc>
			Created with Pixso.
	</desc>
	<defs/>
	<path id="Vector" d="M-0.64 20.14L20.02 -0.64L21.29 0.63L0.63 21.41L-0.64 20.14ZM1.97 -0.42L22.63 20.36L21.36 21.63L0.7 0.85L1.97 -0.42ZM0.63 21.38L0.63 21.41C0.28 21.76 -0.28 21.77 -0.64 21.41C-1 21.06 -1 20.5 -0.64 20.14L-0.61 20.14L0.63 21.38ZM20.02 -0.61L20.02 -0.64C20.37 -1 20.93 -1 21.29 -0.64C21.65 -0.29 21.65 0.27 21.29 0.63L21.26 0.63L20.02 -0.61ZM0.73 0.85L0.7 0.85C0.34 0.5 0.34 -0.07 0.7 -0.42C1.06 -0.78 1.62 -0.77 1.97 -0.42L1.97 -0.39L0.73 0.85ZM22.6 20.36L22.63 20.36C22.99 20.72 22.99 21.28 22.63 21.63C22.27 21.99 21.71 21.99 21.36 21.63L21.36 21.6L22.6 20.36Z" fill="#FFFFFF" fill-opacity="1.000000" fill-rule="evenodd"/>
</svg>
