<svg width="258.000000" height="53.000000" viewBox="0 0 258 53" fill="none" xmlns="http://www.w3.org/2000/svg" xmlns:xlink="http://www.w3.org/1999/xlink">
	<desc>
			Created with Pixso.
	</desc>
	<defs>
		<clipPath id="clip1_203">
			<rect width="258.000000" height="53.000000" fill="white" fill-opacity="0"/>
		</clipPath>
	</defs>
	<rect width="258.000000" height="53.000000" fill="#FFFFFF" fill-opacity="0"/>
	<g clip-path="url(#clip1_203)">
		<path d="M35.46 37.73L36.09 37.73L36.09 38.12L27.6 38.12L27.6 37.77L28.19 37.77C28.63 37.77 29.01 37.6 29.32 37.27C29.64 36.9 29.77 36.51 29.71 36.1L27.95 16.51L19.74 34.7C19.01 36.28 18.57 37.6 18.41 38.67L18.02 38.67L8.01 17.06L6.33 36.1C6.28 36.51 6.41 36.9 6.72 37.27C7.03 37.6 7.4 37.77 7.81 37.77L8.44 37.77L8.44 38.12L0.85 38.12L0.85 37.73L1.48 37.73C2.21 37.73 2.83 37.51 3.36 37.07C3.9 36.63 4.23 36.03 4.33 35.28L7.27 10.32L7.66 10.32L18.57 33.8L29.25 10.32L29.6 10.32L32.61 35.28C32.74 36.32 33.26 37.05 34.17 37.46C34.56 37.64 34.99 37.73 35.46 37.73ZM45.98 15.77C47.99 14.73 50.19 14.21 52.59 14.21C55.01 14.21 57.23 14.73 59.24 15.77C61.24 16.78 62.83 18.22 64.01 20.09C65.21 21.96 65.81 24.08 65.81 26.44C65.81 28.8 65.21 30.92 64.01 32.79C62.83 34.66 61.24 36.11 59.24 37.15C57.23 38.16 55.17 38.67 53.06 38.67C50.95 38.67 49.08 38.37 47.47 37.77C45.85 37.17 44.44 36.34 43.24 35.28C42.07 34.22 41.13 32.92 40.43 31.39C39.75 29.85 39.41 28.06 39.41 26.01C39.41 23.94 40 21.96 41.17 20.09C42.37 18.22 43.97 16.78 45.98 15.77ZM45.24 34.42C47.22 36.47 49.67 37.5 52.59 37.5C55.51 37.5 57.96 36.47 59.94 34.42C61.92 32.35 62.91 29.69 62.91 26.44C62.91 23.2 61.92 20.55 59.94 18.5C57.96 16.42 55.51 15.38 52.59 15.38C49.67 15.38 47.22 16.42 45.24 18.5C43.28 20.55 42.3 23.2 42.3 26.44C42.3 29.69 43.28 32.35 45.24 34.42ZM77.44 15.77C79.45 14.73 81.65 14.21 84.05 14.21C86.47 14.21 88.69 14.73 90.7 15.77C92.7 16.78 94.29 18.22 95.47 20.09C96.67 21.96 97.27 24.08 97.27 26.44C97.27 28.8 96.67 30.92 95.47 32.79C94.29 34.66 92.7 36.11 90.7 37.15C88.69 38.16 86.63 38.67 84.52 38.67C82.4 38.67 80.54 38.37 78.92 37.77C77.31 37.17 75.9 36.34 74.7 35.28C73.53 34.22 72.59 32.92 71.88 31.39C71.21 29.85 70.87 28.06 70.87 26.01C70.87 23.94 71.45 21.96 72.63 20.09C73.83 18.22 75.43 16.78 77.44 15.77ZM76.69 34.42C78.68 36.47 81.13 37.5 84.05 37.5C86.97 37.5 89.42 36.47 91.4 34.42C93.38 32.35 94.37 29.69 94.37 26.44C94.37 23.2 93.38 20.55 91.4 18.5C89.42 16.42 86.97 15.38 84.05 15.38C81.13 15.38 78.68 16.42 76.69 18.5C74.74 20.55 73.76 23.2 73.76 26.44C73.76 29.69 74.74 32.35 76.69 34.42ZM128.61 15.15C128.04 15.15 127.54 15.34 127.13 15.73C126.71 16.1 126.49 16.55 126.46 17.1L126.46 33.68C126.46 35.19 126.55 36.62 126.73 37.97L126.81 38.67L126.46 38.67L106.12 19.47L106.12 35.71C106.12 36.28 106.33 36.76 106.75 37.15C107.17 37.54 107.68 37.73 108.28 37.73L108.94 37.73L108.94 38.12L101.55 38.12L101.55 37.73L102.21 37.73C102.81 37.73 103.32 37.54 103.74 37.15C104.16 36.76 104.36 36.28 104.36 35.71L104.36 19.04C104.36 17.46 104.27 16.04 104.09 14.8L104.01 14.18L104.44 14.21L124.74 33.26L124.74 17.1C124.69 16.55 124.45 16.1 124.04 15.73C123.62 15.34 123.12 15.15 122.55 15.15L121.89 15.15L121.89 14.76L129.28 14.76L129.28 15.15L128.61 15.15ZM153.18 12.07L150.68 12.07L150.68 35.28C150.68 35.96 150.91 36.54 151.38 37.03C151.88 37.5 152.48 37.73 153.18 37.73L153.65 37.73L153.69 38.12L145.13 38.12L145.13 37.73L145.63 37.73C146.31 37.73 146.89 37.5 147.36 37.03C147.85 36.56 148.11 35.99 148.14 35.32L148.14 13.71C148.11 13.03 147.85 12.46 147.36 11.99C146.89 11.5 146.31 11.25 145.63 11.25L145.13 11.25L145.13 10.87L155.69 10.87C158.06 10.87 159.92 11.53 161.28 12.85C162.63 14.15 163.31 15.85 163.31 17.95C163.31 20.03 162.66 21.83 161.36 23.36C160.08 24.87 158.51 25.62 156.66 25.62C157.05 25.8 157.51 26.17 158.03 26.71C158.58 27.23 159.06 27.78 159.48 28.35C161.72 31.54 163.18 33.51 163.86 34.27C164.54 34.99 165.02 35.5 165.31 35.79C165.59 36.05 165.91 36.31 166.24 36.56C166.58 36.82 166.92 37.03 167.26 37.19C168.02 37.55 168.83 37.73 169.69 37.73L169.69 38.12L167.53 38.12C166.41 38.12 165.37 37.93 164.41 37.54C163.44 37.12 162.71 36.71 162.22 36.29C161.75 35.85 161.33 35.44 160.96 35.05C160.63 34.63 159.66 33.28 158.07 31C156.48 28.71 155.55 27.41 155.29 27.1C155.03 26.77 154.76 26.44 154.47 26.13C153.64 25.25 152.8 24.81 151.97 24.81L151.97 24.42C152.18 24.44 152.45 24.46 152.79 24.46C153.13 24.46 153.55 24.44 154.04 24.42C157.28 24.34 159.31 22.99 160.14 20.37C160.3 19.85 160.38 19.37 160.38 18.93C160.38 18.46 160.38 18.16 160.38 18.03C160.33 16.29 159.87 14.89 159.01 13.82C158.15 12.76 156.99 12.19 155.53 12.11C154.9 12.09 154.12 12.07 153.18 12.07ZM171.93 37.73C172.64 37.73 173.25 37.53 173.77 37.11C174.29 36.69 174.55 36.2 174.55 35.63L174.55 17.25C174.55 16.68 174.29 16.19 173.77 15.77C173.25 15.36 172.62 15.15 171.89 15.15L171.39 15.15L171.39 14.76L180.22 14.76L180.22 15.15L179.72 15.15C179.01 15.15 178.4 15.34 177.88 15.73C177.38 16.12 177.11 16.6 177.06 17.17L177.06 35.67C177.08 36.24 177.36 36.73 177.88 37.15C178.4 37.54 179.01 37.73 179.72 37.73L180.22 37.73L180.26 38.12L171.39 38.12L171.39 37.73L171.93 37.73ZM209.71 15.15L209.4 15.15C208.82 15.15 208.26 15.34 207.71 15.73C207.17 16.1 206.7 16.65 206.31 17.41C200.62 29.56 197.66 35.92 197.43 36.49C196.99 37.58 196.75 38.3 196.73 38.67L196.37 38.67L186.71 17.45C185.96 15.91 184.95 15.15 183.7 15.15L183.39 15.15L183.39 14.76L191.41 14.76L191.41 15.15L191.09 15.15C190.6 15.15 190.22 15.33 189.96 15.69C189.72 16.03 189.61 16.34 189.61 16.63C189.61 16.91 189.65 17.21 189.72 17.52L196.73 34.5L203.92 17.6C204.05 17.26 204.12 16.95 204.12 16.67C204.12 16.36 203.99 16.03 203.73 15.69C203.46 15.33 203.07 15.15 202.55 15.15L202.28 15.15L202.28 14.76L209.71 14.76L209.71 15.15ZM213.35 37.73C213.98 37.73 214.5 37.54 214.91 37.15C215.36 36.73 215.59 36.24 215.62 35.67L215.62 17.17C215.62 16.6 215.4 16.12 214.95 15.73C214.51 15.34 213.98 15.15 213.35 15.15L212.8 15.15L212.8 14.76L224.22 14.76C225.29 14.76 226.23 14.68 227.04 14.53C227.85 14.37 228.37 14.24 228.6 14.14L228.6 18.58L228.17 18.54L228.17 17.95C228.17 17.41 227.99 16.94 227.62 16.55C227.26 16.16 226.79 15.97 226.22 15.97L218.08 15.97L218.08 25.86L224.77 25.86C225.29 25.86 225.68 25.7 225.94 25.39C226.23 25.08 226.37 24.69 226.37 24.22L226.37 23.72L226.8 23.72L226.8 29.17L226.37 29.17L226.37 28.66C226.37 27.93 226.1 27.44 225.55 27.18C225.34 27.1 225.12 27.05 224.89 27.03L218.08 27.03L218.08 36.92L224.22 36.92C225.42 36.92 226.42 36.71 227.23 36.29C228.07 35.88 228.69 35.38 229.11 34.81C229.55 34.24 230 33.49 230.44 32.55L230.83 32.55L228.68 38.12L212.8 38.12L212.8 37.73L213.35 37.73ZM242.25 15.97L240.18 15.97L240.18 35.63C240.21 36.44 240.57 37.05 241.28 37.46C241.62 37.64 241.99 37.73 242.41 37.73L242.92 37.73L242.96 38.12L234.94 38.12L234.94 37.73L235.49 37.73C236.09 37.73 236.6 37.54 237.01 37.15C237.46 36.73 237.68 36.24 237.68 35.67L237.68 17.17C237.68 16.6 237.46 16.12 237.01 15.73C236.6 15.34 236.09 15.15 235.49 15.15L234.94 15.15L234.94 14.76L244.76 14.76C247.21 14.76 249.14 15.32 250.55 16.43C251.98 17.55 252.7 19.02 252.7 20.83C252.7 22.65 252.12 24.17 250.98 25.39C249.83 26.61 248.37 27.31 246.6 27.49C247.43 27.86 248.43 28.87 249.61 30.53C249.58 30.53 250.02 31.1 250.94 32.24C251.88 33.38 252.62 34.28 253.17 34.93C253.74 35.55 254.21 36.03 254.57 36.37C255.54 37.28 256.65 37.73 257.9 37.73L257.9 38.12L256.69 38.12C254.63 38.12 253.01 37.72 251.84 36.92C250.95 36.32 250.14 35.58 249.41 34.7C249.26 34.49 248.59 33.58 247.42 31.97C246.27 30.33 245.66 29.47 245.58 29.36C244.17 27.62 242.85 26.75 241.63 26.75L241.63 26.36C244.68 26.36 246.52 26.21 247.14 25.9C248 25.45 248.59 24.99 248.9 24.49C249.55 23.46 249.88 22.31 249.88 21.07C249.88 19.48 249.41 18.26 248.47 17.41C247.53 16.55 246.27 16.08 244.68 16.01C243.98 15.98 243.17 15.97 242.25 15.97Z" fill="#272727" fill-opacity="1.000000" fill-rule="nonzero"/>
		<path d="M97.27 26.12C96.91 15.44 87.34 13.62 82.86 13.8C84.66 14.36 93.24 15.89 94.22 26.12C94.99 34.3 86.97 38.14 82.86 39.04C87.99 39.01 97.63 36.8 97.27 26.12Z" fill="#EFC58B" fill-opacity="1.000000" fill-rule="nonzero"/>
	</g>
</svg>
