<svg width="29.000000" height="12.000000" viewBox="0 0 29 12" fill="none" xmlns="http://www.w3.org/2000/svg" xmlns:xlink="http://www.w3.org/1999/xlink">
	<desc>
			Created with Pixso.
	</desc>
	<defs>
		<clipPath id="clip27_448">
			<rect id="logos:google-pay" width="29.000000" height="12.000000" fill="white" fill-opacity="0"/>
		</clipPath>
	</defs>
	<rect id="logos:google-pay" width="29.000000" height="12.000000" fill="#FFFFFF" fill-opacity="0"/>
	<g clip-path="url(#clip27_448)">
		<path id="Vector" d="M20.3723 3.17261C21.1511 3.17261 21.7529 3.39258 22.2131 3.83252C22.6732 4.27271 22.8856 4.85938 22.8856 5.59253L22.8856 9.11255L21.8945 9.11255L21.8945 8.30591L21.859 8.30591C21.4343 8.96606 20.8325 9.29614 20.1245 9.29614C19.5228 9.29614 18.9918 9.11255 18.567 8.74609C18.1776 8.37939 17.9298 7.86597 17.9298 7.31592C17.9298 6.72925 18.1423 6.25269 18.567 5.88599C18.9918 5.51929 19.5936 5.37256 20.3015 5.37256C20.9387 5.37256 21.4343 5.48267 21.8236 5.73926L21.8236 5.48267C21.8236 5.14038 21.7003 4.79834 21.4536 4.5752L21.3988 4.5293C21.1157 4.27271 20.7617 4.12598 20.3723 4.12598C19.7706 4.12598 19.3104 4.38257 18.9918 4.896L18.0715 4.30933C18.6378 3.53931 19.3812 3.17261 20.3723 3.17261ZM15.3812 0.679199C16.0164 0.679199 16.62 0.908203 17.1027 1.33521L17.1865 1.4126C17.6821 1.85254 17.9298 2.5127 17.9298 3.20923C17.9298 3.90601 17.6821 4.5293 17.1865 5.00586C16.6909 5.48267 16.0892 5.73926 15.3812 5.73926L13.6821 5.70264L13.6821 9.11255L12.6201 9.11255L12.6201 0.679199L15.3812 0.679199ZM20.5139 6.25269C20.0891 6.25269 19.7352 6.36255 19.452 6.58252C19.1688 6.76587 19.0272 7.02271 19.0272 7.35254C19.0272 7.646 19.1688 7.90259 19.3812 8.04932C19.629 8.23267 19.9121 8.34253 20.1954 8.34253C20.5918 8.34253 20.9883 8.18286 21.2983 7.89331L21.3635 7.82935C21.7175 7.49927 21.8945 7.09595 21.8945 6.65601C21.5759 6.39941 21.1157 6.25269 20.5139 6.25269L20.5139 6.25269ZM15.452 1.70581L13.6821 1.70581L13.6821 4.6394L15.452 4.6394C15.8413 4.6394 16.2307 4.49268 16.4785 4.19946C17.0449 3.64941 17.0449 2.73267 16.5139 2.18262L16.4785 2.146C16.1953 1.85254 15.8413 1.66919 15.452 1.70605L15.452 1.70581ZM28.6201 3.35596L25.1157 11.6792L24.0538 11.6792L25.3635 8.78271L23.0626 3.39258L24.1953 3.39258L25.859 7.53589L25.8944 7.53589L27.5228 3.39258L28.6201 3.39258L28.6201 3.35596Z" fill="#5F6368" fill-opacity="1.000000" fill-rule="nonzero"/>
		<path id="Vector" d="M9.3949 5.08252C9.3949 4.7439 9.35864 4.40503 9.32239 4.06641L4.79272 4.06641L4.79272 5.98584L7.3656 5.98584C7.25696 6.58789 6.93079 7.15234 6.42346 7.49121L6.42346 8.73315L7.98169 8.73315C8.8877 7.86768 9.39502 6.58789 9.39502 5.08252L9.3949 5.08252Z" fill="#4285F4" fill-opacity="1.000000" fill-rule="nonzero"/>
		<path id="Vector" d="M4.7926 9.93774C6.09717 9.93774 7.18433 9.48608 7.98157 8.7334L6.42334 7.49146C5.98853 7.79248 5.44495 7.98047 4.7926 7.98047C3.56042 7.98047 2.47327 7.11499 2.11096 5.91064L0.516479 5.91064L0.516479 7.19019C1.34998 8.88379 2.98071 9.93774 4.7926 9.93774Z" fill="#34A853" fill-opacity="1.000000" fill-rule="nonzero"/>
		<path id="Vector" d="M2.11084 5.91089C1.89343 5.30884 1.89343 4.63135 2.11084 3.99146L2.11084 2.71191L0.516479 2.71191C-0.172119 4.10449 -0.172119 5.7605 0.516479 7.19043L2.11084 5.91089Z" fill="#FBBC04" fill-opacity="1.000000" fill-rule="nonzero"/>
		<path id="Vector" d="M4.7926 1.95898C5.48108 1.95898 6.1333 2.22266 6.64075 2.71167L8.01782 1.28174C7.14807 0.453613 5.9884 -0.0356445 4.82874 0.00195312C3.01685 0.00195312 1.34985 1.05591 0.552612 2.74951L2.14709 4.02905C2.47327 2.82471 3.56042 1.95898 4.7926 1.95898Z" fill="#EA4335" fill-opacity="1.000000" fill-rule="nonzero"/>
	</g>
</svg>
